<svg xmlns="http://www.w3.org/2000/svg" xmlns:xlink="http://www.w3.org/1999/xlink" xmlns:inkscape="http://www.inkscape.org/namespaces/inkscape" version="1.1" width="640" height="480" viewBox="0 0 640 480">
<defs>
<clipPath id="clip_0">
<path transform="matrix(1,0,0,-1,0,480)" d="M0 480H640V0H0Z"/>
</clipPath>
</defs>
<g inkscape:groupmode="layer" inkscape:label="Layer 1">
<g clip-path="url(#clip_0)">
<path transform="matrix(1,0,0,-1,291.7427,87.461917)" d="M0 0C36.85 0 73.69 .043 110.541-.011 110.283-10.353 110.97-20.919 110.218-31.11 87.912-31.25 65.584-31.121 43.268-31.164 43.311-44.978 43.182-58.78 43.333-72.583 62.285-72.508 81.226-72.562 100.177-72.562V-103.177C81.205-103.198 62.242-103.177 43.268-103.188V-173.062C28.842-173.062 14.426-173.072 0-173.051Z" fill="#ffffff"/>
<path transform="matrix(1,0,0,-1,259.8911,367.043)" d="M0 0C7.611 6.912 19.049 7.901 28.616 5.171 34.561 3.515 40.419-.85 41.537-7.245 41.967-10.976 42.365-15.265 40.011-18.489 37.625-21.951 33.583-23.768 29.616-24.757 35.485-25.886 41.785-29.218 43.461-35.389 44.569-41.365 44.343-48.331 40.021-53.062 34.862-58.92 26.735-60.962 19.199-61.166 12.513-61.048 5.375-59.941 .021-55.608-4.117-52.405-6.127-47.299-7.181-42.333-2.075-41.859 3.063-42.236 8.191-42.086 9.396-49.621 19.36-51.793 24.896-47.59 28.165-44.881 28.014-39.903 27.025-36.173 24.176-30.347 16.63-31.046 11.201-31.078 11.19-27.391 11.19-23.714 11.201-20.038 14.889-19.952 18.769-20.5 22.252-18.974 26.348-17.017 26.574-11.18 24.671-7.633 20.263-2.376 9.879-4.902 9.438-12.212 4.289-12.233-.86-12.266-6.009-12.18-5.235-7.654-3.526-3.106 0 0" fill="#ffffff"/>
<path transform="matrix(1,0,0,-1,327.4971,400.4961)" d="M0 0C.215-4.085-.871-8.622 1.43-12.319 4.547-16.522 11.19-16.673 15.254-13.835 18.908-10.696 18.532-5.289 18.027-.957 17.5 2.935 13.254 5.095 9.621 4.525 5.891 4.482 2.611 2.536 0 0M-5.16 36.624C2.988 40.967 13.061 40.859 21.628 37.785 28.293 35.377 32.861 28.799 32.99 21.735 28.25 21.735 23.499 21.682 18.758 21.768 17.779 29.271 7.127 30.422 2.396 25.853-1.118 21.617 .247 15.78-.021 10.738 8.718 19.069 25.305 17.629 31.69 7.073 34.582 2.472 34.636-3.204 34.291-8.449 33.765-16.018 28.325-22.672 21.37-25.424 13.179-28.648 3.611-28.584-4.44-24.961-11.202-21.897-15.76-14.878-16.071-7.504-16.211 .816-16.125 9.126-16.114 17.446-16.028 25.133-12.04 32.905-5.16 36.624" fill="#ffffff"/>
<path transform="matrix(1,0,0,-1,392.2002,372.64363)" d="M0 0C-3.806-1.269-5.418-5.504-5.526-9.213-5.687-16.77-5.537-24.338-5.602-31.905-5.623-35.55-5.042-39.85-1.828-42.118 2.579-44.784 9.943-43.967 11.738-38.484 13.501-32.54 12.372-26.24 12.685-20.135 12.383-14.556 13.662-8.535 11.126-3.312 9.083 .623 3.848 1.408 0 0M-3.892 11.352C4.149 12.867 13.114 12.298 20.112 7.696 26.326 3.515 28.937-4.278 28.819-11.513 28.701-19.436 29.014-27.38 28.658-35.303 28.164-43.074 23.38-50.675 15.898-53.395 6.923-56.77-3.838-56.49-12.169-51.503-18.49-47.687-21.64-40.247-21.704-33.066-21.758-26.229-21.683-19.382-21.736-12.534-21.79-6.944-20.78-1.032-17.243 3.461-14.008 7.675-9.03 10.276-3.892 11.352" fill="#ffffff"/>
<path transform="matrix(1,0,0,-1,291.7427,87.461917)" d="M0 0V-173.051C14.426-173.072 28.842-173.062 43.268-173.062V-103.188C62.242-103.177 81.205-103.198 100.177-103.177V-72.562C81.226-72.562 62.285-72.508 43.333-72.583 43.182-58.78 43.311-44.978 43.268-31.164 65.584-31.121 87.912-31.25 110.218-31.11 110.97-20.919 110.283-10.353 110.541-.011 73.69 .043 36.85 0 0 0M-113.174 69.594C-110.132 69.325-107.089 69.368-104.037 69.4-9.771 69.4 84.494 69.39 178.769 69.4 182.671 69.347 186.638 69.637 190.487 68.734 199.829 66.208 206.773 56.963 206.655 47.277 206.687 31.583 206.655 15.899 206.666 .204 206.644-80.86 206.698-161.914 206.644-242.979 99.941-243.097-6.751-242.881-113.442-243.086-113.453-163.816-113.442-84.558-113.453-5.3-112.325 12.566-113.099 30.497-112.873 48.396-112.97 55.351-112.604 62.316-113.152 69.261Z" fill="#ff6b00"/>
<path transform="matrix(1,0,0,-1,168.8511,23.436493)" d="M0 0C3.214 1.795 6.149 4.214 9.739 5.235 10.288-1.709 9.922-8.675 10.019-15.63 9.793-33.528 10.567-51.459 9.438-69.325 9.449-148.583 9.438-227.842 9.449-307.111-.871-313.099-10.997-319.441-21.274-325.525-33.518-332.953-45.805-340.328-58.07-347.734-58.06-243.547-57.995-139.36-58.103-35.173-38.86-23.251-19.35-11.75 0 0" fill="#ff9447"/>
<path transform="matrix(1,0,0,-1,388.3086,361.292)" d="M0 0C-5.139-1.075-10.116-3.677-13.352-7.891-16.889-12.384-17.898-18.296-17.845-23.886-17.791-30.733-17.866-37.581-17.812-44.418-17.748-51.599-14.599-59.038-8.277-62.854 .054-67.842 10.814-68.121 19.79-64.746 27.271-62.026 32.056-54.426 32.55-46.654 32.905-38.731 32.593-30.787 32.711-22.864 32.829-15.63 30.218-7.837 24.004-3.655 17.006 .946 8.041 1.516 0 0M-65.972-2.58C-72.852-6.299-76.84-14.071-76.926-21.758-76.937-30.078-77.022-38.388-76.883-46.708-76.571-54.082-72.013-61.102-65.252-64.165-57.2-67.788-47.633-67.853-39.441-64.628-32.486-61.876-27.047-55.222-26.521-47.653-26.176-42.408-26.229-36.732-29.121-32.131-35.507-21.575-52.094-20.135-60.833-28.466-60.564-23.424-61.93-17.587-58.415-13.352-53.685-8.782-43.032-9.933-42.054-17.437-37.313-17.522-32.562-17.469-27.821-17.469-27.95-10.405-32.519-3.827-39.184-1.419-47.751 1.655-57.823 1.763-65.972-2.58M-128.417-5.751C-131.943-8.857-133.653-13.405-134.427-17.931-129.277-18.017-124.128-17.984-118.979-17.963-118.539-10.653-108.154-8.127-103.747-13.384-101.844-16.931-102.07-22.768-106.166-24.725-109.648-26.251-113.529-25.703-117.216-25.789-117.227-29.465-117.227-33.142-117.216-36.829-111.788-36.797-104.241-36.098-101.393-41.924-100.403-45.654-100.253-50.632-103.521-53.341-109.057-57.544-119.022-55.372-120.226-47.837-125.354-47.987-130.492-47.61-135.598-48.084-134.545-53.05-132.535-58.156-128.396-61.359-123.042-65.692-115.905-66.799-109.218-66.917-101.683-66.713-93.556-64.671-88.396-58.813-84.075-54.082-83.849-47.116-84.956-41.14-86.633-34.969-92.932-31.637-98.802-30.508-94.835-29.519-90.793-27.702-88.407-24.24-86.052-21.016-86.45-16.727-86.88-12.996-87.998-6.601-93.857-2.236-99.801-.58-109.369 2.15-120.807 1.161-128.417-5.751M110.1 274.034C120.376 274.045 130.652 274.066 140.94 274.023 140.94 149.067 140.951 24.112 140.93-100.833 20.973-100.833-98.974-100.854-218.931-100.822-230.766-101.327-241.011-90.373-240.85-78.764-240.828-48.406-241.064-18.027-240.731 12.33-230.455 18.414-220.328 24.757-210.008 30.744-103.317 30.949 3.375 30.733 110.078 30.852 110.132 111.916 110.078 192.97 110.1 274.034" fill="#923b00"/>
<path transform="matrix(1,0,0,-1,392.2002,372.64363)" d="M0 0C3.848 1.408 9.083 .623 11.126-3.312 13.662-8.535 12.383-14.556 12.685-20.135 12.372-26.24 13.501-32.54 11.738-38.484 9.943-43.967 2.579-44.784-1.828-42.118-5.042-39.85-5.623-35.55-5.602-31.905-5.537-24.338-5.687-16.77-5.526-9.213-5.418-5.504-3.806-1.269 0 0" fill="#923b00"/>
<path transform="matrix(1,0,0,-1,327.4971,400.4961)" d="M0 0C2.611 2.536 5.891 4.482 9.621 4.525 13.254 5.095 17.5 2.935 18.027-.957 18.532-5.289 18.908-10.696 15.254-13.835 11.19-16.673 4.547-16.522 1.43-12.319-.871-8.622 .215-4.085 0 0" fill="#923b00"/>
</g>
</g>
</svg>
